Coordinates
version=1
nRows=24
nColumns=24
inDegrees=yes

Units are S.I. units (second, meters, Newtons, ...)
Angles are in degrees.

endheader
time	pelvis_tilt	pelvis_list	pelvis_rotation	pelvis_tx	pelvis_ty	pelvis_tz	hip_flexion_r	hip_adduction_r	hip_rotation_r	knee_angle_r	ankle_angle_r	subtalar_angle_r	mtp_angle_r	hip_flexion_l	hip_adduction_l	hip_rotation_l	knee_angle_l	ankle_angle_l	subtalar_angle_l	mtp_angle_l	lumbar_extension	lumbar_bending	lumbar_rotation
      1.22500000	     13.52433135	      0.84052253	     -1.34580815	     -0.62367692	      0.93661984	     -0.01954538	    -30.83568663	      1.64064685	    -10.99495446	     -9.98622453	     25.77691418	      0.03517285	     20.54889480	     -0.53908105	      4.57827450	    -15.83072618	      8.75346737	      2.91327706	     -4.20208906	     38.15573679	    -20.52832453	     -2.05790886	      3.36718422
      1.23000000	     13.56217809	      1.04254774	     -1.61283204	     -0.61750360	      0.93625718	     -0.01944920	    -30.99472434	      1.21645099	    -10.87074846	    -10.53505319	     25.73380836	      0.21579450	     20.70129415	     -0.45091968	      4.75672021	    -15.89580866	      8.03719686	      2.60311416	     -4.68935548	     38.11285834	    -20.52111303	     -2.42102036	      3.51922119
      1.23500000	     13.60633900	      1.26886057	     -1.85787780	     -0.61131980	      0.93594812	     -0.01941668	    -31.12654813	      0.76675043	    -10.79771508	    -11.14881900	     25.65824397	      0.44835153	     21.04555352	     -0.38123316	      4.95690868	    -15.81889146	      7.30250446	      2.17794450	     -5.41881871	     38.07705897	    -20.52125061	     -2.80312924	      3.63832717
      1.24000000	     13.62012413	      1.51355780	     -1.95067428	     -0.60515833	      0.93563136	     -0.01961806	    -31.22581259	      0.37446930	    -10.85881109	    -11.75881595	     25.43395085	      0.56534920	     22.25020956	     -0.26759319	      5.16305763	    -15.32717687	      6.51668708	      1.64431335	     -6.66286379	     38.21408395	    -20.49756032	     -3.15545260	      3.59555653
      1.24500000	     13.61837858	      1.74698436	     -2.15160475	     -0.59899566	      0.93541248	     -0.01968153	    -31.22729787	     -0.07219369	    -10.74416733	    -12.50467624	     25.15848348	      0.63211628	     23.70280131	     -0.13600125	      5.36264616	    -15.08862335	      5.70411339	      1.11148143	     -7.66654564	     38.45791440	    -20.45365356	     -3.52995815	      3.66506890
      1.25000000	     13.63660162	      1.98304494	     -2.43562255	     -0.59281581	      0.93532455	     -0.01960760	    -31.18825218	     -0.56793355	    -10.49810647	    -13.35704242	     24.91808561	      0.70755887	     24.13252986	     -0.02067498	      5.56621384	    -15.14145472	      4.85525556	      0.66783517	     -8.22170100	     38.47036491	    -20.42330903	     -3.93820972	      3.82035178
      1.25500000	     13.58966352	      2.23639290	     -2.50277981	     -0.58671632	      0.93516069	     -0.01990641	    -31.06901730	     -0.97912764	    -10.45576196	    -14.23166093	     24.54737001	      0.74096544	     25.56635957	      0.18062292	      5.78261007	    -14.55659470	      3.96835205	      0.14328186	     -9.62616228	     38.55099013	    -20.34534263	     -4.28923245	      3.75348452
      1.26000000	     13.53071537	      2.50684241	     -2.61240276	     -0.58061839	      0.93508185	     -0.02016093	    -30.85346096	     -1.43487885	    -10.32449927	    -15.24763792	     24.05862443	      0.58159531	     27.76144854	      0.37991147	      6.02487613	    -14.15739291	      3.10506142	     -0.41366729	    -10.70137887	     38.77609373	    -20.25262927	     -4.66903252	      3.71055641
      1.26500000	     13.45826055	      2.74102268	     -2.75229492	     -0.57458124	      0.93507055	     -0.02035447	    -30.54669936	     -1.87913934	    -10.11550174	    -16.38992337	     23.59323316	      0.52576272	     29.30165614	      0.62321173	      6.22327931	    -13.87452908	      2.16371630	     -0.78317155	    -11.62336473	     38.85202996	    -20.14922238	     -5.02535320	      3.74706742
      1.27000000	     13.46467129	      3.02248536	     -2.90775069	     -0.56845874	      0.93522821	     -0.02057185	    -30.29140814	     -2.38267470	     -9.89567918	    -17.57730553	     22.92964291	      0.32742083	     31.57210848	      0.71671358	      6.49605380	    -13.59660212	      1.33289651	     -1.15352927	    -12.50740314	     38.89273631	    -20.12274246	     -5.43463025	      3.76682859
      1.27500000	     13.29352126	      3.25741027	     -2.94051109	     -0.56257239	      0.93518500	     -0.02096853	    -29.71906818	     -2.78891981	     -9.68729916	    -19.00948202	     22.45560905	      0.20249045	     32.58955263	      1.09344634	      6.69555175	    -13.18222818	      0.32343428	     -1.32102816	    -13.31933740	     38.78243639	    -19.93932404	     -5.74860978	      3.66895340
      1.28000000	     13.24468468	      3.50765927	     -3.06253053	     -0.55659629	      0.93537835	     -0.02129560	    -29.24067600	     -3.26485653	     -9.41403080	    -20.45983913	     21.65815115	     -0.00910264	     35.32563570	      1.25478428	      6.94566117	    -12.85386706	     -0.53671344	     -1.52184336	    -14.23621345	     38.50581090	    -19.87319536	     -6.10608223	      3.67504506
      1.28500000	     12.99203754	      3.71419150	     -3.09941647	     -0.55076631	      0.93533843	     -0.02173679	    -28.42432250	     -3.66037414	     -9.11495010	    -22.13876860	     20.99987474	     -0.10449444	     36.13190630	      1.71554748	      7.12243640	    -12.53555437	     -1.56464842	     -1.42069514	    -14.83963735	     38.35862506	    -19.60491681	     -6.38225554	      3.60968413
      1.29000000	     12.88426176	      3.97348421	     -3.16101404	     -0.54490397	      0.93551795	     -0.02220273	    -27.72264913	     -4.13028041	     -8.86047268	    -23.84674372	     20.02947732	     -0.44380711	     39.33445965	      1.92070074	      7.39620721	    -12.12950606	     -2.39558028	     -1.46960084	    -15.63724376	     37.74102234	    -19.49151374	     -6.72374386	      3.56959865
      1.29500000	     12.59336358	      4.16762486	     -3.21303256	     -0.53918143	      0.93547450	     -0.02267658	    -26.69430230	     -4.53397495	     -8.49990716	    -25.78150581	     19.20262421	     -0.53694291	     40.06798558	      2.39481754	      7.57303421	    -11.90349481	     -3.37659589	     -1.18087414	    -16.05868746	     37.56905143	    -19.19142790	     -6.98264979	      3.53800353
      1.30000000	     12.39253940	      4.40756313	     -3.24449613	     -0.53346254	      0.93556770	     -0.02323961	    -25.72847428	     -4.98141552	     -8.21395358	    -27.72604683	     18.04711067	     -0.94337378	     43.49829307	      2.69412403	      7.83329037	    -11.52646658	     -4.20419474	     -0.99179277	    -16.64648990	     36.59659725	    -18.99348768	     -7.28272914	      3.48608321
      1.30500000	     12.04099604	      4.60800258	     -3.25293686	     -0.52788855	      0.93544472	     -0.02380754	    -24.49124343	     -5.37479720	     -7.86444368	    -29.85865774	     17.02720430	     -1.12880779	     44.36812786	      3.21924115	      8.02600214	    -11.30640915	     -5.15763594	     -0.58344658	    -16.93551945	     36.30341584	    -18.64520908	     -7.52883874	      3.42331907
      1.31000000	     11.77733898	      4.82678092	     -3.34475757	     -0.52225743	      0.93546635	     -0.02433295	    -23.30651795	     -5.82690060	     -7.45622260	    -31.98221390	     15.69588158	     -1.47705003	     47.40588595	      3.53407402	      8.27184993	    -11.07973881	     -5.88652190	     -0.18708431	    -17.30457764	     35.09076802	    -18.37545730	     -7.81187487	      3.45207401
      1.31500000	     11.38325543	      5.02238886	     -3.38587094	     -0.51677533	      0.93528181	     -0.02490082	    -21.89522712	     -6.22853699	     -7.05633182	    -34.24636246	     14.49103004	     -1.61819388	     48.09899425	      4.04408208	      8.46845374	    -10.96411817	     -6.71739142	      0.31990082	    -17.43861396	     34.77775909	    -17.98087481	     -8.05077193	      3.43704896
      1.32000000	     11.07194869	      5.24116100	     -3.48486139	     -0.51127954	      0.93521108	     -0.02542685	    -20.54759211	     -6.66764966	     -6.60907020	    -36.46512911	     13.03976600	     -1.99508338	     50.75253168	      4.38118127	      8.71472893	    -10.81092552	     -7.38836782	      0.88911674	    -17.60633667	     33.26936896	    -17.66791281	     -8.32738557	      3.47125601
      1.32500000	     10.65198278	      5.43579104	     -3.54555044	     -0.50585060	      0.93499142	     -0.02596401	    -19.03992056	     -7.05078518	     -6.15791103	    -38.73228827	     11.71611613	     -2.14019323	     51.20121289	      4.84734176	      8.91493709	    -10.78574489	     -8.07706952	      1.44208376	    -17.61445098	     32.95389518	    -17.24003792	     -8.56527307	      3.51056808
      1.33000000	     10.31630553	      5.64529842	     -3.63599902	     -0.50041998	      0.93487907	     -0.02648460	    -17.61634381	     -7.44701339	     -5.69375514	    -40.92451157	     10.23122847	     -2.51815979	     53.14578902	      5.15666402	      9.15226234	    -10.72139275	     -8.64723311	      2.12937325	    -17.59474400	     31.12542163	    -16.90134272	     -8.82281780	      3.54140859
      1.33500000	      9.98500884	      5.84443646	     -3.78590591	     -0.49501549	      0.93477355	     -0.02688069	    -16.16220390	     -7.82856518	     -5.15566956	    -43.11324170	      8.89981322	     -2.71954097	     53.25145507	      5.43391487	      9.36465187	    -10.83728311	     -9.14647786	      2.71853947	    -17.56253841	     30.95011019	    -16.55643356	     -9.08532320	      3.65887257
      1.34000000	      9.61149576	      6.01843834	     -3.79445349	     -0.48966221	      0.93464314	     -0.02745981	    -14.70099766	     -8.13020129	     -4.77027286	    -45.19450371	      7.48474589	     -3.05557630	     54.13885143	      5.74656946	      9.55957984	    -10.77691325	     -9.66135388	      3.46903968	    -17.31331389	     28.73170046	    -16.19091426	     -9.27955095	      3.61572147
